G75*
%MOIN*%
%OFA0B0*%
%FSLAX24Y24*%
%IPPOS*%
%LPD*%
%AMOC8*
5,1,8,0,0,1.08239X$1,22.5*
%
%ADD10C,0.0000*%
%ADD11R,0.0276X0.0354*%
%ADD12R,0.0354X0.0276*%
%ADD13R,0.0531X0.0236*%
%ADD14R,0.0531X0.0157*%
%ADD15R,0.0315X0.0630*%
%ADD16R,0.0630X0.0315*%
%ADD17R,0.0472X0.0217*%
%ADD18R,0.0217X0.0472*%
%ADD19R,0.0748X0.0630*%
%ADD20R,0.0787X0.0827*%
%ADD21R,0.0315X0.0315*%
%ADD22R,0.0787X0.0787*%
%ADD23C,0.0787*%
D10*
X001361Y001361D02*
X001361Y017109D01*
X017109Y017109D01*
X017109Y001361D01*
X001361Y001361D01*
X001912Y002542D02*
X001914Y002592D01*
X001920Y002642D01*
X001930Y002691D01*
X001944Y002739D01*
X001961Y002786D01*
X001982Y002831D01*
X002007Y002875D01*
X002035Y002916D01*
X002067Y002955D01*
X002101Y002992D01*
X002138Y003026D01*
X002178Y003056D01*
X002220Y003083D01*
X002264Y003107D01*
X002310Y003128D01*
X002357Y003144D01*
X002405Y003157D01*
X002455Y003166D01*
X002504Y003171D01*
X002555Y003172D01*
X002605Y003169D01*
X002654Y003162D01*
X002703Y003151D01*
X002751Y003136D01*
X002797Y003118D01*
X002842Y003096D01*
X002885Y003070D01*
X002926Y003041D01*
X002965Y003009D01*
X003001Y002974D01*
X003033Y002936D01*
X003063Y002896D01*
X003090Y002853D01*
X003113Y002809D01*
X003132Y002763D01*
X003148Y002715D01*
X003160Y002666D01*
X003168Y002617D01*
X003172Y002567D01*
X003172Y002517D01*
X003168Y002467D01*
X003160Y002418D01*
X003148Y002369D01*
X003132Y002321D01*
X003113Y002275D01*
X003090Y002231D01*
X003063Y002188D01*
X003033Y002148D01*
X003001Y002110D01*
X002965Y002075D01*
X002926Y002043D01*
X002885Y002014D01*
X002842Y001988D01*
X002797Y001966D01*
X002751Y001948D01*
X002703Y001933D01*
X002654Y001922D01*
X002605Y001915D01*
X002555Y001912D01*
X002504Y001913D01*
X002455Y001918D01*
X002405Y001927D01*
X002357Y001940D01*
X002310Y001956D01*
X002264Y001977D01*
X002220Y002001D01*
X002178Y002028D01*
X002138Y002058D01*
X002101Y002092D01*
X002067Y002129D01*
X002035Y002168D01*
X002007Y002209D01*
X001982Y002253D01*
X001961Y002298D01*
X001944Y002345D01*
X001930Y002393D01*
X001920Y002442D01*
X001914Y002492D01*
X001912Y002542D01*
X001912Y015928D02*
X001914Y015978D01*
X001920Y016028D01*
X001930Y016077D01*
X001944Y016125D01*
X001961Y016172D01*
X001982Y016217D01*
X002007Y016261D01*
X002035Y016302D01*
X002067Y016341D01*
X002101Y016378D01*
X002138Y016412D01*
X002178Y016442D01*
X002220Y016469D01*
X002264Y016493D01*
X002310Y016514D01*
X002357Y016530D01*
X002405Y016543D01*
X002455Y016552D01*
X002504Y016557D01*
X002555Y016558D01*
X002605Y016555D01*
X002654Y016548D01*
X002703Y016537D01*
X002751Y016522D01*
X002797Y016504D01*
X002842Y016482D01*
X002885Y016456D01*
X002926Y016427D01*
X002965Y016395D01*
X003001Y016360D01*
X003033Y016322D01*
X003063Y016282D01*
X003090Y016239D01*
X003113Y016195D01*
X003132Y016149D01*
X003148Y016101D01*
X003160Y016052D01*
X003168Y016003D01*
X003172Y015953D01*
X003172Y015903D01*
X003168Y015853D01*
X003160Y015804D01*
X003148Y015755D01*
X003132Y015707D01*
X003113Y015661D01*
X003090Y015617D01*
X003063Y015574D01*
X003033Y015534D01*
X003001Y015496D01*
X002965Y015461D01*
X002926Y015429D01*
X002885Y015400D01*
X002842Y015374D01*
X002797Y015352D01*
X002751Y015334D01*
X002703Y015319D01*
X002654Y015308D01*
X002605Y015301D01*
X002555Y015298D01*
X002504Y015299D01*
X002455Y015304D01*
X002405Y015313D01*
X002357Y015326D01*
X002310Y015342D01*
X002264Y015363D01*
X002220Y015387D01*
X002178Y015414D01*
X002138Y015444D01*
X002101Y015478D01*
X002067Y015515D01*
X002035Y015554D01*
X002007Y015595D01*
X001982Y015639D01*
X001961Y015684D01*
X001944Y015731D01*
X001930Y015779D01*
X001920Y015828D01*
X001914Y015878D01*
X001912Y015928D01*
X015298Y015928D02*
X015300Y015978D01*
X015306Y016028D01*
X015316Y016077D01*
X015330Y016125D01*
X015347Y016172D01*
X015368Y016217D01*
X015393Y016261D01*
X015421Y016302D01*
X015453Y016341D01*
X015487Y016378D01*
X015524Y016412D01*
X015564Y016442D01*
X015606Y016469D01*
X015650Y016493D01*
X015696Y016514D01*
X015743Y016530D01*
X015791Y016543D01*
X015841Y016552D01*
X015890Y016557D01*
X015941Y016558D01*
X015991Y016555D01*
X016040Y016548D01*
X016089Y016537D01*
X016137Y016522D01*
X016183Y016504D01*
X016228Y016482D01*
X016271Y016456D01*
X016312Y016427D01*
X016351Y016395D01*
X016387Y016360D01*
X016419Y016322D01*
X016449Y016282D01*
X016476Y016239D01*
X016499Y016195D01*
X016518Y016149D01*
X016534Y016101D01*
X016546Y016052D01*
X016554Y016003D01*
X016558Y015953D01*
X016558Y015903D01*
X016554Y015853D01*
X016546Y015804D01*
X016534Y015755D01*
X016518Y015707D01*
X016499Y015661D01*
X016476Y015617D01*
X016449Y015574D01*
X016419Y015534D01*
X016387Y015496D01*
X016351Y015461D01*
X016312Y015429D01*
X016271Y015400D01*
X016228Y015374D01*
X016183Y015352D01*
X016137Y015334D01*
X016089Y015319D01*
X016040Y015308D01*
X015991Y015301D01*
X015941Y015298D01*
X015890Y015299D01*
X015841Y015304D01*
X015791Y015313D01*
X015743Y015326D01*
X015696Y015342D01*
X015650Y015363D01*
X015606Y015387D01*
X015564Y015414D01*
X015524Y015444D01*
X015487Y015478D01*
X015453Y015515D01*
X015421Y015554D01*
X015393Y015595D01*
X015368Y015639D01*
X015347Y015684D01*
X015330Y015731D01*
X015316Y015779D01*
X015306Y015828D01*
X015300Y015878D01*
X015298Y015928D01*
X015298Y002542D02*
X015300Y002592D01*
X015306Y002642D01*
X015316Y002691D01*
X015330Y002739D01*
X015347Y002786D01*
X015368Y002831D01*
X015393Y002875D01*
X015421Y002916D01*
X015453Y002955D01*
X015487Y002992D01*
X015524Y003026D01*
X015564Y003056D01*
X015606Y003083D01*
X015650Y003107D01*
X015696Y003128D01*
X015743Y003144D01*
X015791Y003157D01*
X015841Y003166D01*
X015890Y003171D01*
X015941Y003172D01*
X015991Y003169D01*
X016040Y003162D01*
X016089Y003151D01*
X016137Y003136D01*
X016183Y003118D01*
X016228Y003096D01*
X016271Y003070D01*
X016312Y003041D01*
X016351Y003009D01*
X016387Y002974D01*
X016419Y002936D01*
X016449Y002896D01*
X016476Y002853D01*
X016499Y002809D01*
X016518Y002763D01*
X016534Y002715D01*
X016546Y002666D01*
X016554Y002617D01*
X016558Y002567D01*
X016558Y002517D01*
X016554Y002467D01*
X016546Y002418D01*
X016534Y002369D01*
X016518Y002321D01*
X016499Y002275D01*
X016476Y002231D01*
X016449Y002188D01*
X016419Y002148D01*
X016387Y002110D01*
X016351Y002075D01*
X016312Y002043D01*
X016271Y002014D01*
X016228Y001988D01*
X016183Y001966D01*
X016137Y001948D01*
X016089Y001933D01*
X016040Y001922D01*
X015991Y001915D01*
X015941Y001912D01*
X015890Y001913D01*
X015841Y001918D01*
X015791Y001927D01*
X015743Y001940D01*
X015696Y001956D01*
X015650Y001977D01*
X015606Y002001D01*
X015564Y002028D01*
X015524Y002058D01*
X015487Y002092D01*
X015453Y002129D01*
X015421Y002168D01*
X015393Y002209D01*
X015368Y002253D01*
X015347Y002298D01*
X015330Y002345D01*
X015316Y002393D01*
X015306Y002442D01*
X015300Y002492D01*
X015298Y002542D01*
D11*
X014609Y005298D03*
X014097Y005298D03*
X014097Y006873D03*
X014609Y006873D03*
X014609Y008448D03*
X014097Y008448D03*
X014215Y009826D03*
X013704Y009826D03*
X013900Y011991D03*
X014412Y011991D03*
X014019Y014353D03*
X013507Y014353D03*
X011853Y014353D03*
X011341Y014353D03*
X010278Y014353D03*
X009767Y014353D03*
D12*
X012385Y012837D03*
X012385Y012326D03*
X012385Y011656D03*
X012385Y011145D03*
X012778Y010475D03*
X012778Y009963D03*
X012582Y004176D03*
X012582Y003664D03*
D13*
X011568Y010288D03*
X009265Y010288D03*
X009265Y013694D03*
X011568Y013694D03*
D14*
X011568Y013399D03*
X011568Y013143D03*
X011568Y012887D03*
X011568Y012631D03*
X011568Y012375D03*
X011568Y012119D03*
X011568Y011863D03*
X011568Y011607D03*
X011568Y011351D03*
X011568Y011095D03*
X011568Y010839D03*
X011568Y010584D03*
X009265Y010584D03*
X009265Y010839D03*
X009265Y011095D03*
X009265Y011351D03*
X009265Y011607D03*
X009265Y011863D03*
X009265Y012119D03*
X009265Y012375D03*
X009265Y012631D03*
X009265Y012887D03*
X009265Y013143D03*
X009265Y013399D03*
X015465Y012109D03*
X015465Y011853D03*
X015465Y011597D03*
X015465Y011341D03*
X015465Y011086D03*
D15*
X010652Y009471D03*
X010180Y009471D03*
X009708Y009471D03*
X009235Y009471D03*
X008763Y009471D03*
X008290Y009471D03*
X007818Y009471D03*
X007345Y009471D03*
X006873Y009471D03*
X006400Y009471D03*
X005928Y009471D03*
X005456Y009471D03*
X005456Y004274D03*
X005928Y004274D03*
X006400Y004274D03*
X006873Y004274D03*
X007345Y004274D03*
X007818Y004274D03*
X008290Y004274D03*
X008763Y004274D03*
X009235Y004274D03*
X009708Y004274D03*
X010180Y004274D03*
X010652Y004274D03*
D16*
X011755Y005250D03*
X011755Y005652D03*
X011755Y006125D03*
X011755Y006597D03*
X011755Y007149D03*
X011755Y007621D03*
X011755Y008093D03*
X011755Y008496D03*
D17*
X013448Y010436D03*
X013448Y011184D03*
X014471Y011184D03*
X014471Y010810D03*
X014471Y010436D03*
D18*
X014530Y012660D03*
X013782Y012660D03*
X013782Y013684D03*
X014156Y013684D03*
X014530Y013684D03*
D19*
X016519Y013211D03*
X016519Y009983D03*
D20*
X015593Y010377D03*
X015593Y012818D03*
D21*
X015633Y008448D03*
X016223Y008448D03*
X016223Y006873D03*
X015633Y006873D03*
X015633Y005298D03*
X016223Y005298D03*
D22*
X004054Y010810D03*
D23*
X005054Y010810D03*
X006054Y010810D03*
X007054Y010810D03*
X008054Y010810D03*
X008054Y013810D03*
X007054Y013810D03*
X006054Y013810D03*
X005054Y013810D03*
X004054Y013810D03*
M02*
