G75*
%MOIN*%
%OFA0B0*%
%FSLAX24Y24*%
%IPPOS*%
%LPD*%
%AMOC8*
5,1,8,0,0,1.08239X$1,22.5*
%
%ADD10C,0.0000*%
%ADD11C,0.0040*%
%ADD12C,0.0060*%
%ADD13C,0.0080*%
%ADD14C,0.0020*%
%ADD15R,0.0344X0.0197*%
D10*
X001361Y001361D02*
X001361Y017109D01*
X017109Y017109D01*
X017109Y001361D01*
X001361Y001361D01*
X001912Y002542D02*
X001914Y002592D01*
X001920Y002642D01*
X001930Y002691D01*
X001944Y002739D01*
X001961Y002786D01*
X001982Y002831D01*
X002007Y002875D01*
X002035Y002916D01*
X002067Y002955D01*
X002101Y002992D01*
X002138Y003026D01*
X002178Y003056D01*
X002220Y003083D01*
X002264Y003107D01*
X002310Y003128D01*
X002357Y003144D01*
X002405Y003157D01*
X002455Y003166D01*
X002504Y003171D01*
X002555Y003172D01*
X002605Y003169D01*
X002654Y003162D01*
X002703Y003151D01*
X002751Y003136D01*
X002797Y003118D01*
X002842Y003096D01*
X002885Y003070D01*
X002926Y003041D01*
X002965Y003009D01*
X003001Y002974D01*
X003033Y002936D01*
X003063Y002896D01*
X003090Y002853D01*
X003113Y002809D01*
X003132Y002763D01*
X003148Y002715D01*
X003160Y002666D01*
X003168Y002617D01*
X003172Y002567D01*
X003172Y002517D01*
X003168Y002467D01*
X003160Y002418D01*
X003148Y002369D01*
X003132Y002321D01*
X003113Y002275D01*
X003090Y002231D01*
X003063Y002188D01*
X003033Y002148D01*
X003001Y002110D01*
X002965Y002075D01*
X002926Y002043D01*
X002885Y002014D01*
X002842Y001988D01*
X002797Y001966D01*
X002751Y001948D01*
X002703Y001933D01*
X002654Y001922D01*
X002605Y001915D01*
X002555Y001912D01*
X002504Y001913D01*
X002455Y001918D01*
X002405Y001927D01*
X002357Y001940D01*
X002310Y001956D01*
X002264Y001977D01*
X002220Y002001D01*
X002178Y002028D01*
X002138Y002058D01*
X002101Y002092D01*
X002067Y002129D01*
X002035Y002168D01*
X002007Y002209D01*
X001982Y002253D01*
X001961Y002298D01*
X001944Y002345D01*
X001930Y002393D01*
X001920Y002442D01*
X001914Y002492D01*
X001912Y002542D01*
X001912Y015928D02*
X001914Y015978D01*
X001920Y016028D01*
X001930Y016077D01*
X001944Y016125D01*
X001961Y016172D01*
X001982Y016217D01*
X002007Y016261D01*
X002035Y016302D01*
X002067Y016341D01*
X002101Y016378D01*
X002138Y016412D01*
X002178Y016442D01*
X002220Y016469D01*
X002264Y016493D01*
X002310Y016514D01*
X002357Y016530D01*
X002405Y016543D01*
X002455Y016552D01*
X002504Y016557D01*
X002555Y016558D01*
X002605Y016555D01*
X002654Y016548D01*
X002703Y016537D01*
X002751Y016522D01*
X002797Y016504D01*
X002842Y016482D01*
X002885Y016456D01*
X002926Y016427D01*
X002965Y016395D01*
X003001Y016360D01*
X003033Y016322D01*
X003063Y016282D01*
X003090Y016239D01*
X003113Y016195D01*
X003132Y016149D01*
X003148Y016101D01*
X003160Y016052D01*
X003168Y016003D01*
X003172Y015953D01*
X003172Y015903D01*
X003168Y015853D01*
X003160Y015804D01*
X003148Y015755D01*
X003132Y015707D01*
X003113Y015661D01*
X003090Y015617D01*
X003063Y015574D01*
X003033Y015534D01*
X003001Y015496D01*
X002965Y015461D01*
X002926Y015429D01*
X002885Y015400D01*
X002842Y015374D01*
X002797Y015352D01*
X002751Y015334D01*
X002703Y015319D01*
X002654Y015308D01*
X002605Y015301D01*
X002555Y015298D01*
X002504Y015299D01*
X002455Y015304D01*
X002405Y015313D01*
X002357Y015326D01*
X002310Y015342D01*
X002264Y015363D01*
X002220Y015387D01*
X002178Y015414D01*
X002138Y015444D01*
X002101Y015478D01*
X002067Y015515D01*
X002035Y015554D01*
X002007Y015595D01*
X001982Y015639D01*
X001961Y015684D01*
X001944Y015731D01*
X001930Y015779D01*
X001920Y015828D01*
X001914Y015878D01*
X001912Y015928D01*
X015298Y015928D02*
X015300Y015978D01*
X015306Y016028D01*
X015316Y016077D01*
X015330Y016125D01*
X015347Y016172D01*
X015368Y016217D01*
X015393Y016261D01*
X015421Y016302D01*
X015453Y016341D01*
X015487Y016378D01*
X015524Y016412D01*
X015564Y016442D01*
X015606Y016469D01*
X015650Y016493D01*
X015696Y016514D01*
X015743Y016530D01*
X015791Y016543D01*
X015841Y016552D01*
X015890Y016557D01*
X015941Y016558D01*
X015991Y016555D01*
X016040Y016548D01*
X016089Y016537D01*
X016137Y016522D01*
X016183Y016504D01*
X016228Y016482D01*
X016271Y016456D01*
X016312Y016427D01*
X016351Y016395D01*
X016387Y016360D01*
X016419Y016322D01*
X016449Y016282D01*
X016476Y016239D01*
X016499Y016195D01*
X016518Y016149D01*
X016534Y016101D01*
X016546Y016052D01*
X016554Y016003D01*
X016558Y015953D01*
X016558Y015903D01*
X016554Y015853D01*
X016546Y015804D01*
X016534Y015755D01*
X016518Y015707D01*
X016499Y015661D01*
X016476Y015617D01*
X016449Y015574D01*
X016419Y015534D01*
X016387Y015496D01*
X016351Y015461D01*
X016312Y015429D01*
X016271Y015400D01*
X016228Y015374D01*
X016183Y015352D01*
X016137Y015334D01*
X016089Y015319D01*
X016040Y015308D01*
X015991Y015301D01*
X015941Y015298D01*
X015890Y015299D01*
X015841Y015304D01*
X015791Y015313D01*
X015743Y015326D01*
X015696Y015342D01*
X015650Y015363D01*
X015606Y015387D01*
X015564Y015414D01*
X015524Y015444D01*
X015487Y015478D01*
X015453Y015515D01*
X015421Y015554D01*
X015393Y015595D01*
X015368Y015639D01*
X015347Y015684D01*
X015330Y015731D01*
X015316Y015779D01*
X015306Y015828D01*
X015300Y015878D01*
X015298Y015928D01*
X015298Y002542D02*
X015300Y002592D01*
X015306Y002642D01*
X015316Y002691D01*
X015330Y002739D01*
X015347Y002786D01*
X015368Y002831D01*
X015393Y002875D01*
X015421Y002916D01*
X015453Y002955D01*
X015487Y002992D01*
X015524Y003026D01*
X015564Y003056D01*
X015606Y003083D01*
X015650Y003107D01*
X015696Y003128D01*
X015743Y003144D01*
X015791Y003157D01*
X015841Y003166D01*
X015890Y003171D01*
X015941Y003172D01*
X015991Y003169D01*
X016040Y003162D01*
X016089Y003151D01*
X016137Y003136D01*
X016183Y003118D01*
X016228Y003096D01*
X016271Y003070D01*
X016312Y003041D01*
X016351Y003009D01*
X016387Y002974D01*
X016419Y002936D01*
X016449Y002896D01*
X016476Y002853D01*
X016499Y002809D01*
X016518Y002763D01*
X016534Y002715D01*
X016546Y002666D01*
X016554Y002617D01*
X016558Y002567D01*
X016558Y002517D01*
X016554Y002467D01*
X016546Y002418D01*
X016534Y002369D01*
X016518Y002321D01*
X016499Y002275D01*
X016476Y002231D01*
X016449Y002188D01*
X016419Y002148D01*
X016387Y002110D01*
X016351Y002075D01*
X016312Y002043D01*
X016271Y002014D01*
X016228Y001988D01*
X016183Y001966D01*
X016137Y001948D01*
X016089Y001933D01*
X016040Y001922D01*
X015991Y001915D01*
X015941Y001912D01*
X015890Y001913D01*
X015841Y001918D01*
X015791Y001927D01*
X015743Y001940D01*
X015696Y001956D01*
X015650Y001977D01*
X015606Y002001D01*
X015564Y002028D01*
X015524Y002058D01*
X015487Y002092D01*
X015453Y002129D01*
X015421Y002168D01*
X015393Y002209D01*
X015368Y002253D01*
X015347Y002298D01*
X015330Y002345D01*
X015316Y002393D01*
X015306Y002442D01*
X015300Y002492D01*
X015298Y002542D01*
D11*
X010503Y006970D02*
X010426Y006893D01*
X010119Y006893D01*
X010043Y006970D01*
X010043Y007123D01*
X010119Y007200D01*
X010273Y007200D01*
X010273Y007046D01*
X010426Y007200D02*
X010503Y007123D01*
X010503Y006970D01*
X010503Y007353D02*
X010043Y007353D01*
X010043Y007660D02*
X010503Y007660D01*
X010503Y007814D02*
X010503Y008044D01*
X010426Y008121D01*
X010119Y008121D01*
X010043Y008044D01*
X010043Y007814D01*
X010503Y007814D01*
X010503Y007353D02*
X010043Y007660D01*
X009519Y007660D02*
X009519Y007353D01*
X009058Y007353D01*
X009058Y007660D01*
X009135Y007814D02*
X009058Y007890D01*
X009058Y008044D01*
X009135Y008121D01*
X009212Y008121D01*
X009288Y008044D01*
X009288Y007890D01*
X009365Y007814D01*
X009442Y007814D01*
X009519Y007890D01*
X009519Y008044D01*
X009442Y008121D01*
X009519Y008274D02*
X009058Y008274D01*
X009058Y008581D01*
X009288Y008428D02*
X009288Y008274D01*
X009519Y008274D02*
X009519Y008581D01*
X009519Y008734D02*
X009519Y009041D01*
X009519Y008888D02*
X009058Y008888D01*
X008534Y009041D02*
X008227Y008734D01*
X008304Y008811D02*
X008074Y009041D01*
X008074Y008734D02*
X008534Y008734D01*
X008534Y008274D02*
X008074Y008274D01*
X008074Y008581D01*
X008151Y008121D02*
X008074Y008044D01*
X008074Y007890D01*
X008151Y007814D01*
X008458Y007814D01*
X008534Y007890D01*
X008534Y008044D01*
X008458Y008121D01*
X008534Y007660D02*
X008074Y007660D01*
X008227Y007507D01*
X008074Y007353D01*
X008534Y007353D01*
X008458Y007200D02*
X008534Y007123D01*
X008534Y006970D01*
X008458Y006893D01*
X008381Y006893D01*
X008304Y006970D01*
X008304Y007123D01*
X008227Y007200D01*
X008151Y007200D01*
X008074Y007123D01*
X008074Y006970D01*
X008151Y006893D01*
X007550Y006970D02*
X007473Y006893D01*
X007397Y006893D01*
X007320Y006970D01*
X007320Y007123D01*
X007243Y007200D01*
X007166Y007200D01*
X007090Y007123D01*
X007090Y006970D01*
X007166Y006893D01*
X007550Y006970D02*
X007550Y007123D01*
X007473Y007200D01*
X007550Y007353D02*
X007090Y007353D01*
X007243Y007507D01*
X007090Y007660D01*
X007550Y007660D01*
X007550Y007814D02*
X007550Y008044D01*
X007473Y008121D01*
X007166Y008121D01*
X007090Y008044D01*
X007090Y007814D01*
X007550Y007814D01*
X007550Y008274D02*
X007550Y008428D01*
X007550Y008351D02*
X007090Y008351D01*
X007090Y008274D02*
X007090Y008428D01*
X007166Y008581D02*
X007090Y008658D01*
X007090Y008811D01*
X007166Y008888D01*
X007473Y008888D01*
X007550Y008811D01*
X007550Y008658D01*
X007473Y008581D01*
X007166Y008581D01*
X006566Y008044D02*
X006489Y008121D01*
X006412Y008121D01*
X006336Y008044D01*
X006259Y008121D01*
X006182Y008121D01*
X006106Y008044D01*
X006106Y007890D01*
X006182Y007814D01*
X006259Y007660D02*
X006566Y007660D01*
X006489Y007814D02*
X006566Y007890D01*
X006566Y008044D01*
X006336Y008044D02*
X006336Y007967D01*
X006259Y007660D02*
X006106Y007507D01*
X006259Y007353D01*
X006566Y007353D01*
X006489Y007200D02*
X006412Y007200D01*
X006336Y007123D01*
X006259Y007200D01*
X006182Y007200D01*
X006106Y007123D01*
X006106Y006970D01*
X006182Y006893D01*
X006336Y007046D02*
X006336Y007123D01*
X006489Y007200D02*
X006566Y007123D01*
X006566Y006970D01*
X006489Y006893D01*
X009058Y006893D02*
X009519Y006893D01*
X009519Y007123D01*
X009442Y007200D01*
X009288Y007200D01*
X009212Y007123D01*
X009212Y006893D01*
X009212Y007046D02*
X009058Y007200D01*
X009288Y007353D02*
X009288Y007507D01*
X013605Y013010D02*
X013529Y013086D01*
X013529Y013163D01*
X013605Y013240D01*
X013989Y013240D01*
X013989Y013316D02*
X013989Y013163D01*
X013912Y013470D02*
X013989Y013547D01*
X013989Y013700D01*
X013912Y013777D01*
X013836Y013777D01*
X013529Y013470D01*
X013529Y013777D01*
D12*
X015720Y011198D02*
X015613Y011092D01*
X015613Y010985D01*
X015720Y011198D02*
X016254Y011198D01*
X016254Y010771D02*
X015934Y010771D01*
X015827Y010878D01*
X015827Y011198D01*
X015934Y010554D02*
X015827Y010447D01*
X015827Y010127D01*
X016467Y010127D01*
X016254Y010127D02*
X016254Y010447D01*
X016147Y010554D01*
X015934Y010554D01*
X015827Y009265D02*
X015827Y008944D01*
X015934Y008838D01*
X016147Y008838D01*
X016254Y008944D01*
X016254Y009265D01*
X016467Y009265D02*
X015827Y009265D01*
X016040Y008620D02*
X016040Y008193D01*
X015934Y008193D02*
X016147Y008193D01*
X016254Y008300D01*
X016254Y008513D01*
X016147Y008620D01*
X016040Y008620D01*
X015827Y008513D02*
X015827Y008300D01*
X015934Y008193D01*
X015827Y007976D02*
X016147Y007976D01*
X016254Y007869D01*
X016254Y007549D01*
X015827Y007549D01*
X015827Y007331D02*
X015827Y007011D01*
X015934Y006904D01*
X016147Y006904D01*
X016254Y007011D01*
X016254Y007331D01*
X015720Y007331D01*
X015613Y007224D01*
X015613Y007118D01*
X015827Y006688D02*
X015827Y006474D01*
X015827Y006581D02*
X016254Y006581D01*
X016254Y006474D01*
X016254Y006257D02*
X016254Y005937D01*
X016147Y005830D01*
X016040Y005937D01*
X016040Y006150D01*
X015934Y006257D01*
X015827Y006150D01*
X015827Y005830D01*
X016040Y005612D02*
X016040Y005185D01*
X015934Y005185D02*
X016147Y005185D01*
X016254Y005292D01*
X016254Y005506D01*
X016147Y005612D01*
X016040Y005612D01*
X015827Y005506D02*
X015827Y005292D01*
X015934Y005185D01*
X015934Y004968D02*
X016361Y004968D01*
X016467Y004861D01*
X016467Y004541D01*
X015827Y004541D01*
X015827Y004861D01*
X015934Y004968D01*
X015417Y004861D02*
X015417Y004647D01*
X015311Y004541D01*
X014884Y004541D01*
X014777Y004647D01*
X014777Y004861D01*
X014884Y004968D01*
X015097Y004968D01*
X015097Y004754D01*
X015311Y004968D02*
X015417Y004861D01*
X015204Y005185D02*
X014884Y005185D01*
X014777Y005292D01*
X014777Y005612D01*
X015204Y005612D01*
X015204Y005830D02*
X014777Y005830D01*
X014990Y005830D02*
X015204Y006043D01*
X015204Y006150D01*
X015204Y006367D02*
X015204Y006474D01*
X014777Y006474D01*
X014777Y006580D02*
X014777Y006367D01*
X015417Y006474D02*
X015524Y006474D01*
X016467Y006581D02*
X016574Y006581D01*
X003801Y009011D02*
X003694Y009011D01*
X003480Y009011D02*
X003053Y009011D01*
X003053Y008905D02*
X003053Y009118D01*
X003053Y009334D02*
X003053Y009655D01*
X003160Y009761D01*
X003267Y009655D01*
X003267Y009441D01*
X003374Y009334D01*
X003480Y009441D01*
X003480Y009761D01*
X003480Y009011D02*
X003480Y008905D01*
X003480Y008687D02*
X003053Y008260D01*
X003053Y008042D02*
X003480Y008042D01*
X003694Y007829D01*
X003480Y007615D01*
X003053Y007615D01*
X003374Y007615D02*
X003374Y008042D01*
X003480Y008260D02*
X003053Y008687D01*
X002430Y009011D02*
X002430Y009225D01*
X002324Y009332D01*
X002110Y009332D01*
X002003Y009225D01*
X002003Y009011D01*
X002110Y008905D01*
X002324Y008905D01*
X002430Y009011D01*
X002430Y009549D02*
X002003Y009763D01*
X002430Y009976D01*
X002324Y010194D02*
X002430Y010300D01*
X002430Y010514D01*
X002324Y010621D01*
X002217Y010621D01*
X002217Y010194D01*
X002110Y010194D02*
X002324Y010194D01*
X002110Y010194D02*
X002003Y010300D01*
X002003Y010514D01*
X002003Y010838D02*
X002430Y010838D01*
X002217Y010838D02*
X002430Y011052D01*
X002430Y011158D01*
X003053Y010944D02*
X003053Y010730D01*
X003160Y010623D01*
X003374Y010730D02*
X003374Y010944D01*
X003267Y011050D01*
X003160Y011050D01*
X003053Y010944D01*
X003160Y011268D02*
X003374Y011268D01*
X003480Y011375D01*
X003480Y011588D01*
X003374Y011695D01*
X003267Y011695D01*
X003267Y011268D01*
X003160Y011268D02*
X003053Y011375D01*
X003053Y011588D01*
X003053Y011912D02*
X003480Y011912D01*
X003480Y012233D01*
X003374Y012339D01*
X003053Y012339D01*
X003053Y012557D02*
X003053Y012877D01*
X003160Y012984D01*
X003267Y012877D01*
X003267Y012664D01*
X003374Y012557D01*
X003480Y012664D01*
X003480Y012984D01*
X003374Y013202D02*
X003160Y013202D01*
X003053Y013308D01*
X003053Y013522D01*
X003160Y013629D01*
X003374Y013629D01*
X003480Y013522D01*
X003480Y013308D01*
X003374Y013202D01*
X003480Y013846D02*
X003053Y013846D01*
X003267Y013846D02*
X003480Y014060D01*
X003480Y014166D01*
X002644Y013091D02*
X002644Y012664D01*
X002537Y012447D02*
X002430Y012447D01*
X002324Y012340D01*
X002324Y012020D01*
X002644Y012020D02*
X002644Y012340D01*
X002537Y012447D01*
X002324Y012340D02*
X002217Y012447D01*
X002110Y012447D01*
X002003Y012340D01*
X002003Y012020D01*
X002644Y012020D01*
X002644Y012878D02*
X002003Y012878D01*
X003587Y011050D02*
X003694Y010944D01*
X003694Y010730D01*
X003587Y010623D01*
X003480Y010623D01*
X003374Y010730D01*
X002537Y008042D02*
X002324Y008042D01*
X002217Y007936D01*
X002217Y007615D01*
X002324Y007398D02*
X002217Y007291D01*
X002217Y006971D01*
X002217Y006753D02*
X002110Y006753D01*
X002003Y006647D01*
X002003Y006433D01*
X002110Y006326D01*
X002324Y006433D02*
X002324Y006647D01*
X002217Y006753D01*
X002537Y006753D02*
X002644Y006647D01*
X002644Y006433D01*
X002537Y006326D01*
X002430Y006326D01*
X002324Y006433D01*
X002644Y006971D02*
X002003Y006971D01*
X002324Y007398D02*
X002537Y007398D01*
X002644Y007291D01*
X002644Y006971D01*
X003053Y006647D02*
X003160Y006753D01*
X003587Y006753D01*
X003694Y006647D01*
X003694Y006433D01*
X003587Y006326D01*
X003480Y006326D01*
X003374Y006433D01*
X003374Y006753D01*
X003374Y006971D02*
X003374Y007398D01*
X002644Y007615D02*
X002644Y007936D01*
X002537Y008042D01*
X002644Y007615D02*
X002003Y007615D01*
X003053Y006647D02*
X003053Y006433D01*
X003160Y006326D01*
D13*
X014107Y011194D02*
X014107Y011253D01*
X014107Y012729D01*
X014107Y012788D01*
X015682Y012788D01*
X015682Y012582D01*
X015682Y011400D01*
X015682Y011194D01*
X014107Y011194D01*
D14*
X014107Y011253D02*
X014255Y011400D01*
X014501Y011400D01*
X014501Y011204D01*
X014501Y011400D02*
X014501Y011499D01*
X014747Y011499D01*
X014747Y012483D01*
X014501Y012483D01*
X014501Y012582D01*
X014255Y012582D01*
X014107Y012729D01*
X014255Y012582D02*
X014255Y011400D01*
X015436Y011400D02*
X015436Y011204D01*
X015436Y011400D02*
X015682Y011400D01*
X015633Y011647D02*
X015436Y011647D01*
X015436Y011843D01*
X015633Y011843D01*
X015633Y012139D02*
X015436Y012139D01*
X015436Y012336D01*
X015633Y012336D01*
X015682Y012582D02*
X015436Y012582D01*
X015436Y012778D01*
X014501Y012778D02*
X014501Y012582D01*
D15*
X014575Y012237D03*
X014575Y011745D03*
M02*
