G75*
%MOIN*%
%OFA0B0*%
%FSLAX24Y24*%
%IPPOS*%
%LPD*%
%AMOC8*
5,1,8,0,0,1.08239X$1,22.5*
%
%ADD10C,0.0000*%
%ADD11C,0.0472*%
%ADD12C,0.0827*%
%ADD13C,0.0500*%
%ADD14R,0.0787X0.0315*%
%ADD15R,0.1181X0.0827*%
%ADD16C,0.0100*%
%ADD17C,0.0240*%
%ADD18C,0.0160*%
D10*
X001361Y001361D02*
X001361Y017109D01*
X017109Y017109D01*
X017109Y001361D01*
X001361Y001361D01*
X001912Y002542D02*
X001914Y002592D01*
X001920Y002642D01*
X001930Y002691D01*
X001944Y002739D01*
X001961Y002786D01*
X001982Y002831D01*
X002007Y002875D01*
X002035Y002916D01*
X002067Y002955D01*
X002101Y002992D01*
X002138Y003026D01*
X002178Y003056D01*
X002220Y003083D01*
X002264Y003107D01*
X002310Y003128D01*
X002357Y003144D01*
X002405Y003157D01*
X002455Y003166D01*
X002504Y003171D01*
X002555Y003172D01*
X002605Y003169D01*
X002654Y003162D01*
X002703Y003151D01*
X002751Y003136D01*
X002797Y003118D01*
X002842Y003096D01*
X002885Y003070D01*
X002926Y003041D01*
X002965Y003009D01*
X003001Y002974D01*
X003033Y002936D01*
X003063Y002896D01*
X003090Y002853D01*
X003113Y002809D01*
X003132Y002763D01*
X003148Y002715D01*
X003160Y002666D01*
X003168Y002617D01*
X003172Y002567D01*
X003172Y002517D01*
X003168Y002467D01*
X003160Y002418D01*
X003148Y002369D01*
X003132Y002321D01*
X003113Y002275D01*
X003090Y002231D01*
X003063Y002188D01*
X003033Y002148D01*
X003001Y002110D01*
X002965Y002075D01*
X002926Y002043D01*
X002885Y002014D01*
X002842Y001988D01*
X002797Y001966D01*
X002751Y001948D01*
X002703Y001933D01*
X002654Y001922D01*
X002605Y001915D01*
X002555Y001912D01*
X002504Y001913D01*
X002455Y001918D01*
X002405Y001927D01*
X002357Y001940D01*
X002310Y001956D01*
X002264Y001977D01*
X002220Y002001D01*
X002178Y002028D01*
X002138Y002058D01*
X002101Y002092D01*
X002067Y002129D01*
X002035Y002168D01*
X002007Y002209D01*
X001982Y002253D01*
X001961Y002298D01*
X001944Y002345D01*
X001930Y002393D01*
X001920Y002442D01*
X001914Y002492D01*
X001912Y002542D01*
X001912Y015928D02*
X001914Y015978D01*
X001920Y016028D01*
X001930Y016077D01*
X001944Y016125D01*
X001961Y016172D01*
X001982Y016217D01*
X002007Y016261D01*
X002035Y016302D01*
X002067Y016341D01*
X002101Y016378D01*
X002138Y016412D01*
X002178Y016442D01*
X002220Y016469D01*
X002264Y016493D01*
X002310Y016514D01*
X002357Y016530D01*
X002405Y016543D01*
X002455Y016552D01*
X002504Y016557D01*
X002555Y016558D01*
X002605Y016555D01*
X002654Y016548D01*
X002703Y016537D01*
X002751Y016522D01*
X002797Y016504D01*
X002842Y016482D01*
X002885Y016456D01*
X002926Y016427D01*
X002965Y016395D01*
X003001Y016360D01*
X003033Y016322D01*
X003063Y016282D01*
X003090Y016239D01*
X003113Y016195D01*
X003132Y016149D01*
X003148Y016101D01*
X003160Y016052D01*
X003168Y016003D01*
X003172Y015953D01*
X003172Y015903D01*
X003168Y015853D01*
X003160Y015804D01*
X003148Y015755D01*
X003132Y015707D01*
X003113Y015661D01*
X003090Y015617D01*
X003063Y015574D01*
X003033Y015534D01*
X003001Y015496D01*
X002965Y015461D01*
X002926Y015429D01*
X002885Y015400D01*
X002842Y015374D01*
X002797Y015352D01*
X002751Y015334D01*
X002703Y015319D01*
X002654Y015308D01*
X002605Y015301D01*
X002555Y015298D01*
X002504Y015299D01*
X002455Y015304D01*
X002405Y015313D01*
X002357Y015326D01*
X002310Y015342D01*
X002264Y015363D01*
X002220Y015387D01*
X002178Y015414D01*
X002138Y015444D01*
X002101Y015478D01*
X002067Y015515D01*
X002035Y015554D01*
X002007Y015595D01*
X001982Y015639D01*
X001961Y015684D01*
X001944Y015731D01*
X001930Y015779D01*
X001920Y015828D01*
X001914Y015878D01*
X001912Y015928D01*
X015298Y015928D02*
X015300Y015978D01*
X015306Y016028D01*
X015316Y016077D01*
X015330Y016125D01*
X015347Y016172D01*
X015368Y016217D01*
X015393Y016261D01*
X015421Y016302D01*
X015453Y016341D01*
X015487Y016378D01*
X015524Y016412D01*
X015564Y016442D01*
X015606Y016469D01*
X015650Y016493D01*
X015696Y016514D01*
X015743Y016530D01*
X015791Y016543D01*
X015841Y016552D01*
X015890Y016557D01*
X015941Y016558D01*
X015991Y016555D01*
X016040Y016548D01*
X016089Y016537D01*
X016137Y016522D01*
X016183Y016504D01*
X016228Y016482D01*
X016271Y016456D01*
X016312Y016427D01*
X016351Y016395D01*
X016387Y016360D01*
X016419Y016322D01*
X016449Y016282D01*
X016476Y016239D01*
X016499Y016195D01*
X016518Y016149D01*
X016534Y016101D01*
X016546Y016052D01*
X016554Y016003D01*
X016558Y015953D01*
X016558Y015903D01*
X016554Y015853D01*
X016546Y015804D01*
X016534Y015755D01*
X016518Y015707D01*
X016499Y015661D01*
X016476Y015617D01*
X016449Y015574D01*
X016419Y015534D01*
X016387Y015496D01*
X016351Y015461D01*
X016312Y015429D01*
X016271Y015400D01*
X016228Y015374D01*
X016183Y015352D01*
X016137Y015334D01*
X016089Y015319D01*
X016040Y015308D01*
X015991Y015301D01*
X015941Y015298D01*
X015890Y015299D01*
X015841Y015304D01*
X015791Y015313D01*
X015743Y015326D01*
X015696Y015342D01*
X015650Y015363D01*
X015606Y015387D01*
X015564Y015414D01*
X015524Y015444D01*
X015487Y015478D01*
X015453Y015515D01*
X015421Y015554D01*
X015393Y015595D01*
X015368Y015639D01*
X015347Y015684D01*
X015330Y015731D01*
X015316Y015779D01*
X015306Y015828D01*
X015300Y015878D01*
X015298Y015928D01*
X015298Y002542D02*
X015300Y002592D01*
X015306Y002642D01*
X015316Y002691D01*
X015330Y002739D01*
X015347Y002786D01*
X015368Y002831D01*
X015393Y002875D01*
X015421Y002916D01*
X015453Y002955D01*
X015487Y002992D01*
X015524Y003026D01*
X015564Y003056D01*
X015606Y003083D01*
X015650Y003107D01*
X015696Y003128D01*
X015743Y003144D01*
X015791Y003157D01*
X015841Y003166D01*
X015890Y003171D01*
X015941Y003172D01*
X015991Y003169D01*
X016040Y003162D01*
X016089Y003151D01*
X016137Y003136D01*
X016183Y003118D01*
X016228Y003096D01*
X016271Y003070D01*
X016312Y003041D01*
X016351Y003009D01*
X016387Y002974D01*
X016419Y002936D01*
X016449Y002896D01*
X016476Y002853D01*
X016499Y002809D01*
X016518Y002763D01*
X016534Y002715D01*
X016546Y002666D01*
X016554Y002617D01*
X016558Y002567D01*
X016558Y002517D01*
X016554Y002467D01*
X016546Y002418D01*
X016534Y002369D01*
X016518Y002321D01*
X016499Y002275D01*
X016476Y002231D01*
X016449Y002188D01*
X016419Y002148D01*
X016387Y002110D01*
X016351Y002075D01*
X016312Y002043D01*
X016271Y002014D01*
X016228Y001988D01*
X016183Y001966D01*
X016137Y001948D01*
X016089Y001933D01*
X016040Y001922D01*
X015991Y001915D01*
X015941Y001912D01*
X015890Y001913D01*
X015841Y001918D01*
X015791Y001927D01*
X015743Y001940D01*
X015696Y001956D01*
X015650Y001977D01*
X015606Y002001D01*
X015564Y002028D01*
X015524Y002058D01*
X015487Y002092D01*
X015453Y002129D01*
X015421Y002168D01*
X015393Y002209D01*
X015368Y002253D01*
X015347Y002298D01*
X015330Y002345D01*
X015316Y002393D01*
X015306Y002442D01*
X015300Y002492D01*
X015298Y002542D01*
D11*
X010023Y015928D03*
X009235Y015928D03*
X008448Y015928D03*
D12*
X007503Y015928D03*
X010967Y015928D03*
D13*
X010361Y006361D03*
X009361Y006361D03*
X008361Y006361D03*
X007361Y006361D03*
X006361Y006361D03*
D14*
X016125Y011745D03*
X016125Y012237D03*
D15*
X014895Y013221D03*
X014895Y010761D03*
D16*
X013986Y010736D02*
X013986Y011111D01*
X014986Y012111D01*
X015236Y012361D02*
X016111Y011486D01*
X016111Y010736D01*
X014861Y009486D01*
X013986Y010361D01*
X014861Y009486D02*
X014111Y008736D01*
X014111Y006236D01*
X014986Y005736D02*
X015736Y005736D01*
X015236Y005236D02*
X014736Y005236D01*
X012486Y007486D01*
X012486Y010486D01*
X013611Y011611D01*
X014111Y011611D01*
X015236Y012361D02*
X012986Y012361D01*
X009486Y015861D01*
X009236Y015861D01*
X009235Y015928D01*
X009361Y014111D02*
X010361Y014111D01*
X011611Y012861D01*
X011611Y009986D01*
X011111Y010861D02*
X011111Y007861D01*
X009986Y006736D01*
X009986Y006361D01*
X009611Y005986D01*
X009111Y005986D01*
X008736Y006361D01*
X008361Y006361D01*
X008361Y005736D02*
X010611Y005736D01*
X011361Y006486D01*
X011361Y012736D01*
X011111Y012986D01*
X010361Y012736D02*
X010986Y012111D01*
X010986Y011611D01*
X010486Y011611D01*
X010736Y011861D02*
X010236Y012361D01*
X007486Y012361D01*
X006361Y011236D01*
X006361Y006361D01*
X008986Y003736D01*
X008361Y005736D02*
X007736Y006361D01*
X007361Y006361D01*
X009361Y006361D02*
X010861Y007861D01*
X010861Y010986D01*
X010986Y011111D01*
X010986Y011611D01*
X010611Y010611D02*
X007736Y010611D01*
X007486Y010361D01*
X007236Y010236D02*
X007236Y010486D01*
X007611Y010861D01*
X007611Y012111D01*
X007236Y010236D02*
X008611Y008861D01*
X008486Y010361D02*
X010361Y010361D01*
X012736Y009236D02*
X013486Y008486D01*
X010861Y006361D02*
X010361Y006361D01*
X016111Y011486D02*
X016111Y011736D01*
X016125Y011745D01*
X016125Y012237D02*
X016236Y012361D01*
X016236Y012611D01*
D17*
X016236Y012611D03*
X014986Y012111D03*
X014111Y011611D03*
X013986Y010736D03*
X013986Y010361D03*
X012736Y009236D03*
X013486Y008486D03*
X011611Y009986D03*
X011111Y010861D03*
X010611Y010611D03*
X010361Y010361D03*
X010486Y011611D03*
X010736Y011861D03*
X010236Y012361D03*
X010361Y012736D03*
X011111Y012986D03*
X009361Y014111D03*
X007611Y012111D03*
X007486Y010361D03*
X008486Y010361D03*
X008611Y008861D03*
X010861Y006361D03*
X008986Y003736D03*
X014111Y006236D03*
X014986Y005736D03*
X015236Y005236D03*
X015736Y005736D03*
D18*
X015558Y005546D02*
X015164Y005546D01*
X015133Y005516D01*
X015038Y005476D01*
X014934Y005476D01*
X014839Y005516D01*
X014766Y005589D01*
X014726Y005684D01*
X014726Y005788D01*
X014766Y005883D01*
X014839Y005957D01*
X014934Y005996D01*
X015038Y005996D01*
X015133Y005957D01*
X015164Y005926D01*
X015558Y005926D01*
X015589Y005957D01*
X015684Y005996D01*
X015788Y005996D01*
X015883Y005957D01*
X015957Y005883D01*
X015996Y005788D01*
X015996Y005684D01*
X015957Y005589D01*
X015883Y005516D01*
X015788Y005476D01*
X015684Y005476D01*
X015589Y005516D01*
X015558Y005546D01*
X015670Y005482D02*
X015322Y005482D01*
X015288Y005496D02*
X015184Y005496D01*
X015089Y005457D01*
X015058Y005426D01*
X014815Y005426D01*
X014235Y006006D01*
X014258Y006016D01*
X014332Y006089D01*
X014371Y006184D01*
X014371Y006288D01*
X014332Y006383D01*
X014301Y006414D01*
X014301Y008657D01*
X014940Y009296D01*
X015051Y009407D01*
X015051Y009407D01*
X016190Y010546D01*
X016301Y010657D01*
X016301Y011447D01*
X016577Y011447D01*
X016659Y011529D01*
X016659Y011960D01*
X016656Y011963D01*
X016663Y011969D01*
X016686Y012010D01*
X016699Y012056D01*
X016699Y012237D01*
X016125Y012237D01*
X016125Y012237D01*
X016699Y012237D01*
X016699Y012418D01*
X016686Y012464D01*
X016663Y012505D01*
X016629Y012539D01*
X016588Y012562D01*
X016542Y012575D01*
X016125Y012575D01*
X016125Y012237D01*
X016125Y012237D01*
X016125Y012575D01*
X015707Y012575D01*
X015662Y012562D01*
X015621Y012539D01*
X015587Y012505D01*
X015563Y012464D01*
X015551Y012418D01*
X015551Y012315D01*
X015315Y012551D01*
X013065Y012551D01*
X010064Y015552D01*
X010097Y015552D01*
X010236Y015609D01*
X010341Y015715D01*
X010399Y015853D01*
X010399Y016003D01*
X010341Y016141D01*
X010236Y016247D01*
X010097Y016304D01*
X009948Y016304D01*
X009809Y016247D01*
X009704Y016141D01*
X009646Y016003D01*
X009646Y015970D01*
X009610Y016006D01*
X009554Y016141D01*
X009448Y016247D01*
X009310Y016304D01*
X009160Y016304D01*
X009022Y016247D01*
X008916Y016141D01*
X008859Y016003D01*
X008859Y015853D01*
X008916Y015715D01*
X009022Y015609D01*
X009160Y015552D01*
X009310Y015552D01*
X009448Y015609D01*
X009459Y015620D01*
X012796Y012282D01*
X012907Y012171D01*
X014730Y012171D01*
X014726Y012163D01*
X014726Y012120D01*
X014341Y011735D01*
X014332Y011758D01*
X014258Y011832D01*
X014163Y011871D01*
X014059Y011871D01*
X013964Y011832D01*
X013933Y011801D01*
X013532Y011801D01*
X013421Y011690D01*
X012296Y010565D01*
X012296Y007407D01*
X012407Y007296D01*
X014657Y005046D01*
X015058Y005046D01*
X015089Y005016D01*
X015184Y004976D01*
X015288Y004976D01*
X015383Y005016D01*
X015457Y005089D01*
X015496Y005184D01*
X015496Y005288D01*
X015457Y005383D01*
X015383Y005457D01*
X015288Y005496D01*
X015151Y005482D02*
X015052Y005482D01*
X014920Y005482D02*
X014759Y005482D01*
X014744Y005641D02*
X014600Y005641D01*
X014731Y005799D02*
X014442Y005799D01*
X014283Y005958D02*
X014841Y005958D01*
X015131Y005958D02*
X015591Y005958D01*
X015881Y005958D02*
X016829Y005958D01*
X016829Y006116D02*
X014343Y006116D01*
X014371Y006275D02*
X016829Y006275D01*
X016829Y006433D02*
X014301Y006433D01*
X014301Y006592D02*
X016829Y006592D01*
X016829Y006750D02*
X014301Y006750D01*
X014301Y006909D02*
X016829Y006909D01*
X016829Y007067D02*
X014301Y007067D01*
X014301Y007226D02*
X016829Y007226D01*
X016829Y007384D02*
X014301Y007384D01*
X014301Y007543D02*
X016829Y007543D01*
X016829Y007701D02*
X014301Y007701D01*
X014301Y007860D02*
X016829Y007860D01*
X016829Y008018D02*
X014301Y008018D01*
X014301Y008177D02*
X016829Y008177D01*
X016829Y008335D02*
X014301Y008335D01*
X014301Y008494D02*
X016829Y008494D01*
X016829Y008652D02*
X014301Y008652D01*
X014454Y008811D02*
X016829Y008811D01*
X016829Y008969D02*
X014613Y008969D01*
X014771Y009128D02*
X016829Y009128D01*
X016829Y009286D02*
X014930Y009286D01*
X015088Y009445D02*
X016829Y009445D01*
X016829Y009603D02*
X015247Y009603D01*
X015405Y009762D02*
X016829Y009762D01*
X016829Y009920D02*
X015564Y009920D01*
X015722Y010079D02*
X016829Y010079D01*
X016829Y010237D02*
X015881Y010237D01*
X016039Y010396D02*
X016829Y010396D01*
X016829Y010554D02*
X016198Y010554D01*
X016301Y010713D02*
X016829Y010713D01*
X016829Y010871D02*
X016301Y010871D01*
X016301Y011030D02*
X016829Y011030D01*
X016829Y011188D02*
X016301Y011188D01*
X016301Y011347D02*
X016829Y011347D01*
X016829Y011505D02*
X016634Y011505D01*
X016659Y011664D02*
X016829Y011664D01*
X016829Y011822D02*
X016659Y011822D01*
X016669Y011981D02*
X016829Y011981D01*
X016829Y012139D02*
X016699Y012139D01*
X016699Y012298D02*
X016829Y012298D01*
X016829Y012456D02*
X016688Y012456D01*
X016829Y012615D02*
X013001Y012615D01*
X012843Y012773D02*
X014164Y012773D01*
X014164Y012750D02*
X014246Y012668D01*
X015543Y012668D01*
X015625Y012750D01*
X015625Y013693D01*
X015543Y013775D01*
X014246Y013775D01*
X014164Y013693D01*
X014164Y012750D01*
X014164Y012932D02*
X012684Y012932D01*
X012526Y013090D02*
X014164Y013090D01*
X014164Y013249D02*
X012367Y013249D01*
X012209Y013407D02*
X014164Y013407D01*
X014164Y013566D02*
X012050Y013566D01*
X011892Y013724D02*
X014195Y013724D01*
X014972Y014757D02*
X014982Y014757D01*
X015071Y014691D01*
X015073Y014681D01*
X015113Y014659D01*
X015148Y014632D01*
X015159Y014634D01*
X015255Y014581D01*
X015260Y014572D01*
X015301Y014556D01*
X015341Y014535D01*
X015351Y014538D01*
X015454Y014499D01*
X015460Y014490D01*
X015503Y014481D01*
X015545Y014465D01*
X015554Y014470D01*
X015662Y014446D01*
X015669Y014438D01*
X015713Y014435D01*
X015757Y014426D01*
X015766Y014431D01*
X015876Y014423D01*
X015884Y014417D01*
X015928Y014420D01*
X015972Y014417D01*
X015980Y014423D01*
X016090Y014431D01*
X016099Y014426D01*
X016143Y014435D01*
X016187Y014438D01*
X016194Y014446D01*
X016302Y014470D01*
X016311Y014465D01*
X016353Y014481D01*
X016396Y014490D01*
X016402Y014499D01*
X016505Y014538D01*
X016515Y014535D01*
X016555Y014556D01*
X016596Y014572D01*
X016601Y014581D01*
X016697Y014634D01*
X016708Y014632D01*
X016743Y014659D01*
X016783Y014681D01*
X016786Y014691D01*
X016829Y014723D01*
X016829Y003747D01*
X016786Y003780D01*
X016783Y003790D01*
X016743Y003811D01*
X016708Y003838D01*
X016697Y003836D01*
X016601Y003889D01*
X016596Y003899D01*
X016555Y003914D01*
X016515Y003936D01*
X016505Y003933D01*
X016402Y003971D01*
X016396Y003980D01*
X016353Y003989D01*
X016311Y004005D01*
X016302Y004001D01*
X016194Y004024D01*
X016187Y004032D01*
X016143Y004035D01*
X016099Y004045D01*
X016090Y004039D01*
X015980Y004047D01*
X015972Y004054D01*
X015928Y004050D01*
X015884Y004054D01*
X015876Y004047D01*
X015766Y004039D01*
X015757Y004045D01*
X015713Y004035D01*
X015669Y004032D01*
X015662Y004024D01*
X015554Y004001D01*
X015545Y004005D01*
X015503Y003989D01*
X015460Y003980D01*
X015454Y003971D01*
X015351Y003933D01*
X015341Y003936D01*
X015301Y003914D01*
X015260Y003899D01*
X015255Y003889D01*
X015159Y003836D01*
X015148Y003838D01*
X015113Y003811D01*
X015073Y003790D01*
X015071Y003780D01*
X014982Y003714D01*
X014972Y003714D01*
X014940Y003682D01*
X014905Y003655D01*
X014903Y003645D01*
X014825Y003567D01*
X014815Y003566D01*
X014788Y003530D01*
X014757Y003498D01*
X014757Y003488D01*
X014691Y003400D01*
X014681Y003397D01*
X014659Y003358D01*
X014632Y003322D01*
X014634Y003312D01*
X014581Y003215D01*
X014572Y003211D01*
X014556Y003169D01*
X014535Y003130D01*
X014538Y003120D01*
X014499Y003016D01*
X014490Y003011D01*
X014481Y002967D01*
X014465Y002925D01*
X014470Y002916D01*
X014446Y002808D01*
X014438Y002801D01*
X014435Y002757D01*
X014426Y002713D01*
X014431Y002704D01*
X014423Y002595D01*
X014417Y002587D01*
X014420Y002542D01*
X014417Y002498D01*
X014423Y002490D01*
X014431Y002380D01*
X014426Y002371D01*
X014435Y002328D01*
X014438Y002283D01*
X014446Y002276D01*
X014470Y002169D01*
X014465Y002159D01*
X014481Y002117D01*
X014490Y002074D01*
X014499Y002068D01*
X014538Y001965D01*
X014535Y001955D01*
X014556Y001916D01*
X014572Y001874D01*
X014581Y001870D01*
X014634Y001773D01*
X014632Y001762D01*
X014659Y001727D01*
X014681Y001688D01*
X014691Y001685D01*
X014723Y001641D01*
X004904Y001641D01*
X004904Y010023D01*
X001641Y010023D01*
X001641Y014723D01*
X001685Y014691D01*
X001688Y014681D01*
X001727Y014659D01*
X001762Y014632D01*
X001773Y014634D01*
X001870Y014581D01*
X001874Y014572D01*
X001916Y014556D01*
X001955Y014535D01*
X001965Y014538D01*
X002068Y014499D01*
X002074Y014490D01*
X002117Y014481D01*
X002159Y014465D01*
X002169Y014470D01*
X002276Y014446D01*
X002283Y014438D01*
X002328Y014435D01*
X002371Y014426D01*
X002380Y014431D01*
X002490Y014423D01*
X002498Y014417D01*
X002542Y014420D01*
X002587Y014417D01*
X002595Y014423D01*
X002704Y014431D01*
X002713Y014426D01*
X002757Y014435D01*
X002801Y014438D01*
X002808Y014446D01*
X002916Y014470D01*
X002925Y014465D01*
X002967Y014481D01*
X003011Y014490D01*
X003016Y014499D01*
X003120Y014538D01*
X003130Y014535D01*
X003169Y014556D01*
X003211Y014572D01*
X003215Y014581D01*
X003312Y014634D01*
X003322Y014632D01*
X003358Y014659D01*
X003397Y014681D01*
X003400Y014691D01*
X003488Y014757D01*
X003498Y014757D01*
X003530Y014788D01*
X003566Y014815D01*
X003567Y014825D01*
X003645Y014903D01*
X003655Y014905D01*
X003682Y014940D01*
X003714Y014972D01*
X003714Y014982D01*
X003780Y015071D01*
X003790Y015073D01*
X003811Y015113D01*
X003838Y015148D01*
X003836Y015159D01*
X003889Y015255D01*
X003899Y015260D01*
X003914Y015301D01*
X003936Y015341D01*
X003933Y015351D01*
X003971Y015454D01*
X003980Y015460D01*
X003989Y015503D01*
X004005Y015545D01*
X004001Y015554D01*
X004024Y015662D01*
X004032Y015669D01*
X004035Y015713D01*
X004045Y015757D01*
X004039Y015766D01*
X004047Y015876D01*
X004054Y015884D01*
X004050Y015928D01*
X004054Y015972D01*
X004047Y015980D01*
X004039Y016090D01*
X004045Y016099D01*
X004035Y016143D01*
X004032Y016187D01*
X004024Y016194D01*
X004001Y016302D01*
X004005Y016311D01*
X003989Y016353D01*
X003980Y016396D01*
X003971Y016402D01*
X003933Y016505D01*
X003936Y016515D01*
X003914Y016555D01*
X003899Y016596D01*
X003889Y016601D01*
X003836Y016697D01*
X003838Y016708D01*
X003811Y016743D01*
X003790Y016783D01*
X003780Y016786D01*
X003747Y016829D01*
X014723Y016829D01*
X014691Y016786D01*
X014681Y016783D01*
X014659Y016743D01*
X014632Y016708D01*
X014634Y016697D01*
X014581Y016601D01*
X014572Y016596D01*
X014556Y016555D01*
X014535Y016515D01*
X014538Y016505D01*
X014499Y016402D01*
X014490Y016396D01*
X014481Y016353D01*
X014465Y016311D01*
X014470Y016302D01*
X014446Y016194D01*
X014438Y016187D01*
X014435Y016143D01*
X014426Y016099D01*
X014431Y016090D01*
X014423Y015980D01*
X014417Y015972D01*
X014420Y015928D01*
X014417Y015884D01*
X014423Y015876D01*
X014431Y015766D01*
X014426Y015757D01*
X014435Y015713D01*
X014438Y015669D01*
X014446Y015662D01*
X014470Y015554D01*
X014465Y015545D01*
X014481Y015503D01*
X014490Y015460D01*
X014499Y015454D01*
X014538Y015351D01*
X014535Y015341D01*
X014556Y015301D01*
X014572Y015260D01*
X014581Y015255D01*
X014634Y015159D01*
X014632Y015148D01*
X014659Y015113D01*
X014681Y015073D01*
X014691Y015071D01*
X014757Y014982D01*
X014757Y014972D01*
X014788Y014940D01*
X014815Y014905D01*
X014825Y014903D01*
X014903Y014825D01*
X014905Y014815D01*
X014940Y014788D01*
X014972Y014757D01*
X014895Y014834D02*
X010782Y014834D01*
X010624Y014992D02*
X014749Y014992D01*
X014633Y015151D02*
X010465Y015151D01*
X010307Y015309D02*
X014552Y015309D01*
X014489Y015468D02*
X011290Y015468D01*
X011281Y015459D02*
X011437Y015615D01*
X011521Y015818D01*
X011521Y016038D01*
X011437Y016241D01*
X011281Y016397D01*
X011077Y016481D01*
X010857Y016481D01*
X010654Y016397D01*
X010498Y016241D01*
X010414Y016038D01*
X010414Y015818D01*
X010498Y015615D01*
X010654Y015459D01*
X010857Y015375D01*
X011077Y015375D01*
X011281Y015459D01*
X011441Y015626D02*
X014454Y015626D01*
X014430Y015785D02*
X011507Y015785D01*
X011521Y015943D02*
X014419Y015943D01*
X014426Y016102D02*
X011494Y016102D01*
X011418Y016260D02*
X014461Y016260D01*
X014505Y016419D02*
X011229Y016419D01*
X010706Y016419D02*
X007764Y016419D01*
X007816Y016397D02*
X007613Y016481D01*
X007393Y016481D01*
X007189Y016397D01*
X007034Y016241D01*
X006949Y016038D01*
X006949Y015818D01*
X007034Y015615D01*
X007189Y015459D01*
X007393Y015375D01*
X007613Y015375D01*
X007816Y015459D01*
X007972Y015615D01*
X008056Y015818D01*
X008056Y016038D01*
X007972Y016241D01*
X007816Y016397D01*
X007953Y016260D02*
X008266Y016260D01*
X008235Y016247D02*
X008129Y016141D01*
X008071Y016003D01*
X008071Y015853D01*
X008129Y015715D01*
X008235Y015609D01*
X008373Y015552D01*
X008523Y015552D01*
X008661Y015609D01*
X008767Y015715D01*
X008824Y015853D01*
X008824Y016003D01*
X008767Y016141D01*
X008661Y016247D01*
X008523Y016304D01*
X008373Y016304D01*
X008235Y016247D01*
X008112Y016102D02*
X008030Y016102D01*
X008056Y015943D02*
X008071Y015943D01*
X008042Y015785D02*
X008100Y015785D01*
X008218Y015626D02*
X007977Y015626D01*
X007825Y015468D02*
X009611Y015468D01*
X009769Y015309D02*
X003918Y015309D01*
X003982Y015468D02*
X007181Y015468D01*
X007029Y015626D02*
X004016Y015626D01*
X004040Y015785D02*
X006963Y015785D01*
X006949Y015943D02*
X004052Y015943D01*
X004044Y016102D02*
X006976Y016102D01*
X007052Y016260D02*
X004010Y016260D01*
X003965Y016419D02*
X007241Y016419D01*
X008629Y016260D02*
X009054Y016260D01*
X008900Y016102D02*
X008783Y016102D01*
X008824Y015943D02*
X008859Y015943D01*
X008887Y015785D02*
X008796Y015785D01*
X008678Y015626D02*
X009005Y015626D01*
X009570Y016102D02*
X009687Y016102D01*
X009841Y016260D02*
X009416Y016260D01*
X010148Y015468D02*
X010645Y015468D01*
X010493Y015626D02*
X010253Y015626D01*
X010370Y015785D02*
X010428Y015785D01*
X010414Y015943D02*
X010399Y015943D01*
X010358Y016102D02*
X010440Y016102D01*
X010517Y016260D02*
X010204Y016260D01*
X009928Y015151D02*
X003837Y015151D01*
X003721Y014992D02*
X010086Y014992D01*
X010245Y014834D02*
X003575Y014834D01*
X003387Y014675D02*
X010403Y014675D01*
X010562Y014517D02*
X003063Y014517D01*
X002021Y014517D02*
X001641Y014517D01*
X001641Y014675D02*
X001698Y014675D01*
X001641Y014358D02*
X009278Y014358D01*
X009309Y014371D02*
X009214Y014332D01*
X009141Y014258D01*
X009101Y014163D01*
X009101Y014059D01*
X009141Y013964D01*
X009214Y013891D01*
X009309Y013851D01*
X009413Y013851D01*
X009508Y013891D01*
X009539Y013921D01*
X010282Y013921D01*
X010987Y013216D01*
X010964Y013207D01*
X010891Y013133D01*
X010851Y013038D01*
X010851Y012934D01*
X010891Y012839D01*
X010964Y012766D01*
X011059Y012726D01*
X011102Y012726D01*
X011171Y012657D01*
X011171Y012195D01*
X011065Y012301D01*
X010621Y012745D01*
X010621Y012788D01*
X010582Y012883D01*
X010508Y012957D01*
X010413Y012996D01*
X010309Y012996D01*
X010214Y012957D01*
X010141Y012883D01*
X010101Y012788D01*
X010101Y012684D01*
X010136Y012601D01*
X010089Y012582D01*
X010058Y012551D01*
X007407Y012551D01*
X006282Y011426D01*
X006171Y011315D01*
X006171Y006705D01*
X006140Y006692D01*
X006030Y006582D01*
X005971Y006439D01*
X005971Y006284D01*
X006030Y006140D01*
X006140Y006030D01*
X006284Y005971D01*
X006439Y005971D01*
X006470Y005984D01*
X008726Y003727D01*
X008726Y003684D01*
X008766Y003589D01*
X008839Y003516D01*
X008934Y003476D01*
X009038Y003476D01*
X009133Y003516D01*
X009207Y003589D01*
X009246Y003684D01*
X009246Y003788D01*
X009207Y003883D01*
X009133Y003957D01*
X009038Y003996D01*
X008995Y003996D01*
X006738Y006253D01*
X006751Y006284D01*
X006751Y006439D01*
X006692Y006582D01*
X006582Y006692D01*
X006551Y006705D01*
X006551Y011157D01*
X007381Y011987D01*
X007391Y011964D01*
X007421Y011933D01*
X007421Y010940D01*
X007157Y010676D01*
X007046Y010565D01*
X007046Y010157D01*
X008351Y008852D01*
X008351Y008809D01*
X008391Y008714D01*
X008464Y008641D01*
X008559Y008601D01*
X008663Y008601D01*
X008758Y008641D01*
X008832Y008714D01*
X008871Y008809D01*
X008871Y008913D01*
X008832Y009008D01*
X008758Y009082D01*
X008663Y009121D01*
X008620Y009121D01*
X007610Y010131D01*
X007633Y010141D01*
X007707Y010214D01*
X007746Y010309D01*
X007746Y010352D01*
X007815Y010421D01*
X008230Y010421D01*
X008226Y010413D01*
X008226Y010309D01*
X008266Y010214D01*
X008339Y010141D01*
X008434Y010101D01*
X008538Y010101D01*
X008633Y010141D01*
X008664Y010171D01*
X010183Y010171D01*
X010214Y010141D01*
X010309Y010101D01*
X010413Y010101D01*
X010508Y010141D01*
X010582Y010214D01*
X010621Y010309D01*
X010621Y010351D01*
X010663Y010351D01*
X010671Y010355D01*
X010671Y007940D01*
X009470Y006738D01*
X009439Y006751D01*
X009284Y006751D01*
X009140Y006692D01*
X009030Y006582D01*
X008971Y006439D01*
X008971Y006395D01*
X008815Y006551D01*
X008705Y006551D01*
X008692Y006582D01*
X008582Y006692D01*
X008439Y006751D01*
X008284Y006751D01*
X008140Y006692D01*
X008030Y006582D01*
X007971Y006439D01*
X007971Y006395D01*
X007815Y006551D01*
X007705Y006551D01*
X007692Y006582D01*
X007582Y006692D01*
X007439Y006751D01*
X007284Y006751D01*
X007140Y006692D01*
X007030Y006582D01*
X006971Y006439D01*
X006971Y006284D01*
X007030Y006140D01*
X007140Y006030D01*
X007284Y005971D01*
X007439Y005971D01*
X007582Y006030D01*
X007690Y006138D01*
X008171Y005657D01*
X008282Y005546D01*
X010690Y005546D01*
X010801Y005657D01*
X010801Y005657D01*
X011440Y006296D01*
X011551Y006407D01*
X011551Y009730D01*
X011559Y009726D01*
X011663Y009726D01*
X011758Y009766D01*
X011832Y009839D01*
X011871Y009934D01*
X011871Y010038D01*
X011832Y010133D01*
X011801Y010164D01*
X011801Y012940D01*
X011690Y013051D01*
X010440Y014301D01*
X009539Y014301D01*
X009508Y014332D01*
X009413Y014371D01*
X009309Y014371D01*
X009444Y014358D02*
X010720Y014358D01*
X010879Y014200D02*
X010541Y014200D01*
X010700Y014041D02*
X011037Y014041D01*
X011196Y013883D02*
X010858Y013883D01*
X011017Y013724D02*
X011354Y013724D01*
X011513Y013566D02*
X011175Y013566D01*
X011334Y013407D02*
X011671Y013407D01*
X011830Y013249D02*
X011492Y013249D01*
X011651Y013090D02*
X011988Y013090D01*
X012147Y012932D02*
X011801Y012932D01*
X011801Y012773D02*
X012305Y012773D01*
X012464Y012615D02*
X011801Y012615D01*
X011801Y012456D02*
X012622Y012456D01*
X012781Y012298D02*
X011801Y012298D01*
X011801Y012139D02*
X014726Y012139D01*
X014587Y011981D02*
X011801Y011981D01*
X011801Y011822D02*
X013954Y011822D01*
X014268Y011822D02*
X014428Y011822D01*
X015410Y012456D02*
X015561Y012456D01*
X015625Y012773D02*
X016829Y012773D01*
X016829Y012932D02*
X015625Y012932D01*
X015625Y013090D02*
X016829Y013090D01*
X016829Y013249D02*
X015625Y013249D01*
X015625Y013407D02*
X016829Y013407D01*
X016829Y013566D02*
X015625Y013566D01*
X015594Y013724D02*
X016829Y013724D01*
X016829Y013883D02*
X011733Y013883D01*
X011575Y014041D02*
X016829Y014041D01*
X016829Y014200D02*
X011416Y014200D01*
X011258Y014358D02*
X016829Y014358D01*
X016829Y014517D02*
X016449Y014517D01*
X016773Y014675D02*
X016829Y014675D01*
X015407Y014517D02*
X011099Y014517D01*
X010941Y014675D02*
X015083Y014675D01*
X014564Y016577D02*
X003906Y016577D01*
X003817Y016736D02*
X014653Y016736D01*
X010955Y013249D02*
X001641Y013249D01*
X001641Y013407D02*
X010796Y013407D01*
X010638Y013566D02*
X001641Y013566D01*
X001641Y013724D02*
X010479Y013724D01*
X010321Y013883D02*
X009489Y013883D01*
X009233Y013883D02*
X001641Y013883D01*
X001641Y014041D02*
X009109Y014041D01*
X009116Y014200D02*
X001641Y014200D01*
X001641Y013090D02*
X010873Y013090D01*
X010852Y012932D02*
X010533Y012932D01*
X010621Y012773D02*
X010956Y012773D01*
X010751Y012615D02*
X011171Y012615D01*
X011171Y012456D02*
X010910Y012456D01*
X011068Y012298D02*
X011171Y012298D01*
X011801Y011664D02*
X013395Y011664D01*
X013236Y011505D02*
X011801Y011505D01*
X011801Y011347D02*
X013078Y011347D01*
X012919Y011188D02*
X011801Y011188D01*
X011801Y011030D02*
X012761Y011030D01*
X012602Y010871D02*
X011801Y010871D01*
X011801Y010713D02*
X012444Y010713D01*
X012296Y010554D02*
X011801Y010554D01*
X011801Y010396D02*
X012296Y010396D01*
X012296Y010237D02*
X011801Y010237D01*
X011854Y010079D02*
X012296Y010079D01*
X012296Y009920D02*
X011865Y009920D01*
X011749Y009762D02*
X012296Y009762D01*
X012296Y009603D02*
X011551Y009603D01*
X011551Y009445D02*
X012296Y009445D01*
X012296Y009286D02*
X011551Y009286D01*
X011551Y009128D02*
X012296Y009128D01*
X012296Y008969D02*
X011551Y008969D01*
X011551Y008811D02*
X012296Y008811D01*
X012296Y008652D02*
X011551Y008652D01*
X011551Y008494D02*
X012296Y008494D01*
X012296Y008335D02*
X011551Y008335D01*
X011551Y008177D02*
X012296Y008177D01*
X012296Y008018D02*
X011551Y008018D01*
X011551Y007860D02*
X012296Y007860D01*
X012296Y007701D02*
X011551Y007701D01*
X011551Y007543D02*
X012296Y007543D01*
X012319Y007384D02*
X011551Y007384D01*
X011551Y007226D02*
X012478Y007226D01*
X012636Y007067D02*
X011551Y007067D01*
X011551Y006909D02*
X012795Y006909D01*
X012953Y006750D02*
X011551Y006750D01*
X011551Y006592D02*
X013112Y006592D01*
X013270Y006433D02*
X011551Y006433D01*
X011440Y006296D02*
X011440Y006296D01*
X011418Y006275D02*
X013429Y006275D01*
X013587Y006116D02*
X011260Y006116D01*
X011101Y005958D02*
X013746Y005958D01*
X013904Y005799D02*
X010943Y005799D01*
X010784Y005641D02*
X014063Y005641D01*
X014221Y005482D02*
X007509Y005482D01*
X007667Y005324D02*
X014380Y005324D01*
X014538Y005165D02*
X007826Y005165D01*
X007984Y005007D02*
X015111Y005007D01*
X015361Y005007D02*
X016829Y005007D01*
X016829Y005165D02*
X015488Y005165D01*
X015481Y005324D02*
X016829Y005324D01*
X016829Y005482D02*
X015802Y005482D01*
X015978Y005641D02*
X016829Y005641D01*
X016829Y005799D02*
X015991Y005799D01*
X016829Y004848D02*
X008143Y004848D01*
X008301Y004690D02*
X016829Y004690D01*
X016829Y004531D02*
X008460Y004531D01*
X008618Y004373D02*
X016829Y004373D01*
X016829Y004214D02*
X008777Y004214D01*
X008935Y004056D02*
X016829Y004056D01*
X016829Y003897D02*
X016597Y003897D01*
X015259Y003897D02*
X009193Y003897D01*
X009246Y003739D02*
X015016Y003739D01*
X014838Y003580D02*
X009198Y003580D01*
X008774Y003580D02*
X004904Y003580D01*
X004904Y003422D02*
X014707Y003422D01*
X014608Y003263D02*
X004904Y003263D01*
X004904Y003105D02*
X014532Y003105D01*
X014473Y002946D02*
X004904Y002946D01*
X004904Y002788D02*
X014437Y002788D01*
X014426Y002629D02*
X004904Y002629D01*
X004904Y002471D02*
X014425Y002471D01*
X014436Y002312D02*
X004904Y002312D01*
X004904Y002154D02*
X014467Y002154D01*
X014526Y001995D02*
X004904Y001995D01*
X004904Y001837D02*
X014599Y001837D01*
X014696Y001678D02*
X004904Y001678D01*
X004904Y003739D02*
X008715Y003739D01*
X008556Y003897D02*
X004904Y003897D01*
X004904Y004056D02*
X008398Y004056D01*
X008239Y004214D02*
X004904Y004214D01*
X004904Y004373D02*
X008081Y004373D01*
X007922Y004531D02*
X004904Y004531D01*
X004904Y004690D02*
X007764Y004690D01*
X007605Y004848D02*
X004904Y004848D01*
X004904Y005007D02*
X007447Y005007D01*
X007288Y005165D02*
X004904Y005165D01*
X004904Y005324D02*
X007130Y005324D01*
X006971Y005482D02*
X004904Y005482D01*
X004904Y005641D02*
X006813Y005641D01*
X006654Y005799D02*
X004904Y005799D01*
X004904Y005958D02*
X006496Y005958D01*
X006747Y006275D02*
X006975Y006275D01*
X006971Y006433D02*
X006751Y006433D01*
X006682Y006592D02*
X007040Y006592D01*
X007281Y006750D02*
X006551Y006750D01*
X006551Y006909D02*
X009640Y006909D01*
X009798Y007067D02*
X006551Y007067D01*
X006551Y007226D02*
X009957Y007226D01*
X010115Y007384D02*
X006551Y007384D01*
X006551Y007543D02*
X010274Y007543D01*
X010432Y007701D02*
X006551Y007701D01*
X006551Y007860D02*
X010591Y007860D01*
X010671Y008018D02*
X006551Y008018D01*
X006551Y008177D02*
X010671Y008177D01*
X010671Y008335D02*
X006551Y008335D01*
X006551Y008494D02*
X010671Y008494D01*
X010671Y008652D02*
X008770Y008652D01*
X008871Y008811D02*
X010671Y008811D01*
X010671Y008969D02*
X008848Y008969D01*
X008613Y009128D02*
X010671Y009128D01*
X010671Y009286D02*
X008455Y009286D01*
X008296Y009445D02*
X010671Y009445D01*
X010671Y009603D02*
X008138Y009603D01*
X007979Y009762D02*
X010671Y009762D01*
X010671Y009920D02*
X007821Y009920D01*
X007662Y010079D02*
X010671Y010079D01*
X010671Y010237D02*
X010591Y010237D01*
X010130Y012615D02*
X001641Y012615D01*
X001641Y012773D02*
X010101Y012773D01*
X010189Y012932D02*
X001641Y012932D01*
X001641Y012456D02*
X007312Y012456D01*
X007154Y012298D02*
X001641Y012298D01*
X001641Y012139D02*
X006995Y012139D01*
X006837Y011981D02*
X001641Y011981D01*
X001641Y011822D02*
X006678Y011822D01*
X006520Y011664D02*
X001641Y011664D01*
X001641Y011505D02*
X006361Y011505D01*
X006203Y011347D02*
X001641Y011347D01*
X001641Y011188D02*
X006171Y011188D01*
X006171Y011030D02*
X001641Y011030D01*
X001641Y010871D02*
X006171Y010871D01*
X006171Y010713D02*
X001641Y010713D01*
X001641Y010554D02*
X006171Y010554D01*
X006171Y010396D02*
X001641Y010396D01*
X001641Y010237D02*
X006171Y010237D01*
X006171Y010079D02*
X001641Y010079D01*
X004904Y009920D02*
X006171Y009920D01*
X006171Y009762D02*
X004904Y009762D01*
X004904Y009603D02*
X006171Y009603D01*
X006171Y009445D02*
X004904Y009445D01*
X004904Y009286D02*
X006171Y009286D01*
X006171Y009128D02*
X004904Y009128D01*
X004904Y008969D02*
X006171Y008969D01*
X006171Y008811D02*
X004904Y008811D01*
X004904Y008652D02*
X006171Y008652D01*
X006171Y008494D02*
X004904Y008494D01*
X004904Y008335D02*
X006171Y008335D01*
X006171Y008177D02*
X004904Y008177D01*
X004904Y008018D02*
X006171Y008018D01*
X006171Y007860D02*
X004904Y007860D01*
X004904Y007701D02*
X006171Y007701D01*
X006171Y007543D02*
X004904Y007543D01*
X004904Y007384D02*
X006171Y007384D01*
X006171Y007226D02*
X004904Y007226D01*
X004904Y007067D02*
X006171Y007067D01*
X006171Y006909D02*
X004904Y006909D01*
X004904Y006750D02*
X006171Y006750D01*
X006040Y006592D02*
X004904Y006592D01*
X004904Y006433D02*
X005971Y006433D01*
X005975Y006275D02*
X004904Y006275D01*
X004904Y006116D02*
X006055Y006116D01*
X006875Y006116D02*
X007055Y006116D01*
X007033Y005958D02*
X007871Y005958D01*
X007712Y006116D02*
X007668Y006116D01*
X007933Y006433D02*
X007971Y006433D01*
X008040Y006592D02*
X007682Y006592D01*
X007441Y006750D02*
X008281Y006750D01*
X008441Y006750D02*
X009281Y006750D01*
X009441Y006750D02*
X009481Y006750D01*
X009040Y006592D02*
X008682Y006592D01*
X008933Y006433D02*
X008971Y006433D01*
X008188Y005641D02*
X007350Y005641D01*
X007192Y005799D02*
X008029Y005799D01*
X009820Y005926D02*
X010009Y006115D01*
X010033Y006081D01*
X010081Y006033D01*
X010136Y005993D01*
X010196Y005963D01*
X010260Y005942D01*
X010316Y005933D01*
X010316Y006316D01*
X010406Y006316D01*
X010406Y005933D01*
X010462Y005942D01*
X010526Y005963D01*
X010586Y005993D01*
X010635Y006028D01*
X010532Y005926D01*
X009820Y005926D01*
X009851Y005958D02*
X010211Y005958D01*
X010316Y005958D02*
X010406Y005958D01*
X010511Y005958D02*
X010564Y005958D01*
X010694Y006088D02*
X010729Y006136D01*
X010760Y006196D01*
X010781Y006260D01*
X010789Y006316D01*
X010406Y006316D01*
X010406Y006406D01*
X010316Y006406D01*
X010316Y006789D01*
X010307Y006788D01*
X011171Y007652D01*
X011171Y006565D01*
X010694Y006088D01*
X010715Y006116D02*
X010722Y006116D01*
X010783Y006275D02*
X010881Y006275D01*
X010789Y006406D02*
X010781Y006462D01*
X010760Y006526D01*
X010729Y006586D01*
X010689Y006641D01*
X010641Y006689D01*
X010586Y006729D01*
X010526Y006760D01*
X010462Y006781D01*
X010406Y006789D01*
X010406Y006406D01*
X010789Y006406D01*
X010785Y006433D02*
X011039Y006433D01*
X011171Y006592D02*
X010725Y006592D01*
X010545Y006750D02*
X011171Y006750D01*
X011171Y006909D02*
X010427Y006909D01*
X010406Y006750D02*
X010316Y006750D01*
X010316Y006592D02*
X010406Y006592D01*
X010406Y006433D02*
X010316Y006433D01*
X010316Y006275D02*
X010406Y006275D01*
X010406Y006116D02*
X010316Y006116D01*
X010586Y007067D02*
X011171Y007067D01*
X011171Y007226D02*
X010744Y007226D01*
X010903Y007384D02*
X011171Y007384D01*
X011171Y007543D02*
X011061Y007543D01*
X008452Y008652D02*
X006551Y008652D01*
X006551Y008811D02*
X008351Y008811D01*
X008234Y008969D02*
X006551Y008969D01*
X006551Y009128D02*
X008076Y009128D01*
X007917Y009286D02*
X006551Y009286D01*
X006551Y009445D02*
X007759Y009445D01*
X007600Y009603D02*
X006551Y009603D01*
X006551Y009762D02*
X007442Y009762D01*
X007283Y009920D02*
X006551Y009920D01*
X006551Y010079D02*
X007125Y010079D01*
X007046Y010237D02*
X006551Y010237D01*
X006551Y010396D02*
X007046Y010396D01*
X007046Y010554D02*
X006551Y010554D01*
X006551Y010713D02*
X007194Y010713D01*
X007352Y010871D02*
X006551Y010871D01*
X006551Y011030D02*
X007421Y011030D01*
X007421Y011188D02*
X006582Y011188D01*
X006740Y011347D02*
X007421Y011347D01*
X007421Y011505D02*
X006899Y011505D01*
X007057Y011664D02*
X007421Y011664D01*
X007421Y011822D02*
X007216Y011822D01*
X007374Y011981D02*
X007384Y011981D01*
X007789Y010396D02*
X008226Y010396D01*
X008256Y010237D02*
X007716Y010237D01*
X016125Y012298D02*
X016125Y012298D01*
X016125Y012456D02*
X016125Y012456D01*
M02*
