%
M48
M72
T01C0.0120
T02C0.0315
T03C0.0551
T04C0.1260
%
T01
X8611Y8861
X8486Y10361
X7486Y10361
X7611Y12111
X9361Y14111
X10361Y12736
X10236Y12361
X10736Y11861
X10486Y11611
X11111Y10861
X10611Y10611
X10361Y10361
X11611Y9986
X12736Y9236
X13486Y8486
X13986Y10361
X13986Y10736
X14111Y11611
X14986Y12111
X16236Y12611
X11111Y12986
X10861Y6361
X8986Y3736
X14111Y6236
X14986Y5736
X15236Y5236
X15736Y5736
T02
X10023Y15928
X9235Y15928
X8448Y15928
T03
X7503Y15928
X10967Y15928
T04
X2542Y2542
X2542Y15928
X15928Y15928
X15928Y2542
M30
